<svg width="1200" height="760" viewBox="0 0 1200 760" fill="none" xmlns="http://www.w3.org/2000/svg">
  <rect width="1200" height="760" fill="#020806"/>
  <path d="M120 120h960v520H120z" fill="#06130d" stroke="#34d399" stroke-opacity=".34" stroke-width="2"/>
  <path d="M120 212h960" stroke="#34d399" stroke-opacity=".18" stroke-width="2"/>
  <circle cx="180" cy="166" r="16" fill="#34d399"/>
  <circle cx="230" cy="166" r="16" fill="#86efac" fill-opacity=".55"/>
  <circle cx="280" cy="166" r="16" fill="#e5e7eb" fill-opacity=".22"/>
  <rect x="176" y="276" width="214" height="244" rx="20" fill="#020806" stroke="#34d399" stroke-opacity=".22"/>
  <rect x="493" y="276" width="214" height="244" rx="20" fill="#020806" stroke="#34d399" stroke-opacity=".22"/>
  <rect x="810" y="276" width="214" height="244" rx="20" fill="#020806" stroke="#34d399" stroke-opacity=".22"/>
  <path d="M226 365h104l-18 72h-64l-22-72z" stroke="#34d399" stroke-width="14" stroke-linejoin="round"/>
  <path d="M543 365h104l-18 72h-64l-22-72z" stroke="#34d399" stroke-width="14" stroke-linejoin="round" opacity=".7"/>
  <path d="M860 365h104l-18 72h-64l-22-72z" stroke="#34d399" stroke-width="14" stroke-linejoin="round" opacity=".45"/>
  <circle cx="260" cy="467" r="10" fill="#e5e7eb"/><circle cx="304" cy="467" r="10" fill="#e5e7eb"/>
  <circle cx="577" cy="467" r="10" fill="#e5e7eb"/><circle cx="621" cy="467" r="10" fill="#e5e7eb"/>
  <circle cx="894" cy="467" r="10" fill="#e5e7eb"/><circle cx="938" cy="467" r="10" fill="#e5e7eb"/>
  <text x="176" y="602" fill="#e5e7eb" font-family="Inter, Arial, sans-serif" font-size="44" font-weight="800">Gaming E-commerce</text>
  <text x="176" y="642" fill="#86efac" font-family="Inter, Arial, sans-serif" font-size="22" letter-spacing="4">HTML CSS JAVASCRIPT</text>
</svg>
