<svg width="1200" height="760" viewBox="0 0 1200 760" fill="none" xmlns="http://www.w3.org/2000/svg">
  <rect width="1200" height="760" fill="#020806"/>
  <circle cx="1000" cy="150" r="310" fill="#10b981" fill-opacity=".12"/>
  <rect x="90" y="82" width="1020" height="596" rx="28" fill="#06130d" stroke="#34d399" stroke-opacity=".35" stroke-width="2"/>
  <rect x="145" y="142" width="274" height="420" rx="18" fill="#020806" stroke="#10b981" stroke-opacity=".22"/>
  <rect x="464" y="142" width="590" height="420" rx="18" fill="#020806" stroke="#10b981" stroke-opacity=".22"/>
  <path d="M186 212h192M186 286h144M186 360h172M186 434h126" stroke="#e5e7eb" stroke-width="18" stroke-linecap="round" opacity=".32"/>
  <rect x="508" y="198" width="110" height="94" rx="16" fill="#10b981" fill-opacity=".24" stroke="#34d399" stroke-opacity=".38"/>
  <rect x="650" y="198" width="110" height="94" rx="16" fill="#0f172a" stroke="#34d399" stroke-opacity=".18"/>
  <rect x="792" y="198" width="110" height="94" rx="16" fill="#0f172a" stroke="#34d399" stroke-opacity=".18"/>
  <rect x="508" y="334" width="396" height="40" rx="10" fill="#34d399" fill-opacity=".16"/>
  <rect x="508" y="414" width="468" height="40" rx="10" fill="#e5e7eb" fill-opacity=".12"/>
  <rect x="508" y="494" width="322" height="40" rx="10" fill="#e5e7eb" fill-opacity=".12"/>
  <text x="145" y="622" fill="#e5e7eb" font-family="Inter, Arial, sans-serif" font-size="44" font-weight="800">Portail Absence</text>
  <text x="145" y="662" fill="#86efac" font-family="Inter, Arial, sans-serif" font-size="22" letter-spacing="4">ATTENDANCE MANAGEMENT</text>
</svg>
